HIERARCHY
ROOT mixamorig:Hips
{
	OFFSET 0.000000 104.274902 0.000000
	CHANNELS 6 Xposition Yposition Zposition Xrotation Yrotation Zrotation
	JOINT mixamorig:Spine
	{
		OFFSET 0.000000 10.181549 0.131524
		CHANNELS 6 Xposition Yposition Zposition Xrotation Yrotation Zrotation
		JOINT mixamorig:Spine1
		{
			OFFSET 0.000000 9.893990 -1.470706
			CHANNELS 3 Xrotation Yrotation Zrotation
			JOINT mixamorig:Spine2
			{
				OFFSET 0.000000 9.220787 -1.370637
				CHANNELS 3 Xrotation Yrotation Zrotation
				JOINT mixamorig:Neck
				{
					OFFSET 0.000000 16.740372 -2.049022
					CHANNELS 6 Xposition Yposition Zposition Xrotation Yrotation Zrotation
					JOINT mixamorig:Head
					{
						OFFSET 0.000000 9.617859 1.684976
						CHANNELS 6 Xposition Yposition Zposition Xrotation Yrotation Zrotation
						JOINT mixamorig:HeadTop_End
						{
							OFFSET 0.000000 22.037384 7.501072
							CHANNELS 6 Xposition Yposition Zposition Xrotation Yrotation Zrotation
							End Site
							{
								OFFSET 0.000000 23.106567 -2.828246
							}
						}
					}
				}
				JOINT mixamorig:RightShoulder
				{
					OFFSET -4.570000 11.014877 -2.160840
					CHANNELS 6 Xposition Yposition Zposition Xrotation Yrotation Zrotation
					JOINT mixamorig:RightArm
					{
						OFFSET -10.592867 -0.524796 -2.232105
						CHANNELS 3 Xrotation Yrotation Zrotation
						JOINT mixamorig:RightForeArm
						{
							OFFSET -27.841497 0.000000 -0.000002
							CHANNELS 3 Xrotation Yrotation Zrotation
							JOINT mixamorig:RightHand
							{
								OFFSET -28.328812 0.000000 -0.000001
								CHANNELS 3 Xrotation Yrotation Zrotation
								JOINT mixamorig:RightHandThumb1
								{
									OFFSET -2.464798 -1.573990 2.681911
									CHANNELS 6 Xposition Yposition Zposition Xrotation Yrotation Zrotation
									JOINT mixamorig:RightHandThumb2
									{
										OFFSET -3.244781 -1.873383 1.873376
										CHANNELS 3 Xrotation Yrotation Zrotation
										JOINT mixamorig:RightHandThumb3
										{
											OFFSET -2.646263 -1.527817 1.527818
											CHANNELS 6 Xposition Yposition Zposition Xrotation Yrotation Zrotation
											JOINT mixamorig:RightHandThumb4
											{
												OFFSET -1.994591 -1.151581 1.151575
												CHANNELS 6 Xposition Yposition Zposition Xrotation Yrotation Zrotation
												End Site
												{
													OFFSET -1.860176 -1.142715 1.365483
												}
											}
										}
									}
								}
								JOINT mixamorig:RightHandIndex1
								{
									OFFSET -9.108299 -0.517883 2.259803
									CHANNELS 6 Xposition Yposition Zposition Xrotation Yrotation Zrotation
									JOINT mixamorig:RightHandIndex2
									{
										OFFSET -3.699997 0.000000 0.000000
										CHANNELS 3 Xrotation Yrotation Zrotation
										JOINT mixamorig:RightHandIndex3
										{
											OFFSET -2.850006 0.000000 0.000000
											CHANNELS 3 Xrotation Yrotation Zrotation
											JOINT mixamorig:RightHandIndex4
											{
												OFFSET -2.772194 0.000000 0.000000
												CHANNELS 3 Xrotation Yrotation Zrotation
												End Site
												{
													OFFSET -2.772202 0.000000 -0.000484
												}
											}
										}
									}
								}
								JOINT mixamorig:RightHandMiddle1
								{
									OFFSET -9.532501 0.000000 -0.000000
									CHANNELS 6 Xposition Yposition Zposition Xrotation Yrotation Zrotation
									JOINT mixamorig:RightHandMiddle2
									{
										OFFSET -3.699997 0.000000 0.000000
										CHANNELS 3 Xrotation Yrotation Zrotation
										JOINT mixamorig:RightHandMiddle3
										{
											OFFSET -2.949997 0.000000 0.000000
											CHANNELS 3 Xrotation Yrotation Zrotation
											JOINT mixamorig:RightHandMiddle4
											{
												OFFSET -2.946594 0.000000 0.000000
												CHANNELS 3 Xrotation Yrotation Zrotation
												End Site
												{
													OFFSET -2.946602 0.000000 -0.000982
												}
											}
										}
									}
								}
								JOINT mixamorig:RightHandRing1
								{
									OFFSET -9.103600 -0.043106 -1.865100
									CHANNELS 6 Xposition Yposition Zposition Xrotation Yrotation Zrotation
									JOINT mixamorig:RightHandRing2
									{
										OFFSET -3.379303 0.000000 0.000000
										CHANNELS 3 Xrotation Yrotation Zrotation
										JOINT mixamorig:RightHandRing3
										{
											OFFSET -2.889694 0.000000 0.000000
											CHANNELS 3 Xrotation Yrotation Zrotation
											JOINT mixamorig:RightHandRing4
											{
												OFFSET -2.638802 0.000000 0.000000
												CHANNELS 3 Xrotation Yrotation Zrotation
												End Site
												{
													OFFSET -2.638802 0.000000 0.004218
												}
											}
										}
									}
								}
								JOINT mixamorig:RightHandPinky1
								{
									OFFSET -8.076698 -0.486725 -3.806299
									CHANNELS 6 Xposition Yposition Zposition Xrotation Yrotation Zrotation
									JOINT mixamorig:RightHandPinky2
									{
										OFFSET -3.600006 0.000000 0.000000
										CHANNELS 3 Xrotation Yrotation Zrotation
										JOINT mixamorig:RightHandPinky3
										{
											OFFSET -2.099998 0.000000 0.000000
											CHANNELS 3 Xrotation Yrotation Zrotation
											JOINT mixamorig:RightHandPinky4
											{
												OFFSET -2.115791 0.000000 0.000000
												CHANNELS 3 Xrotation Yrotation Zrotation
												End Site
												{
													OFFSET -2.115799 0.000000 0.000174
												}
											}
										}
									}
								}
							}
						}
					}
				}
				JOINT mixamorig:LeftShoulder
				{
					OFFSET 4.570400 11.014679 -2.160816
					CHANNELS 6 Xposition Yposition Zposition Xrotation Yrotation Zrotation
					JOINT mixamorig:LeftArm
					{
						OFFSET 10.592373 -0.524597 -2.232116
						CHANNELS 3 Xrotation Yrotation Zrotation
						JOINT mixamorig:LeftForeArm
						{
							OFFSET 27.841488 0.000000 0.000001
							CHANNELS 3 Xrotation Yrotation Zrotation
							JOINT mixamorig:LeftHand
							{
								OFFSET 28.328808 0.000000 -0.000000
								CHANNELS 3 Xrotation Yrotation Zrotation
								JOINT mixamorig:LeftHandThumb1
								{
									OFFSET 2.466103 -1.576202 2.681698
									CHANNELS 6 Xposition Yposition Zposition Xrotation Yrotation Zrotation
									JOINT mixamorig:LeftHandThumb2
									{
										OFFSET 3.243317 -1.872528 1.872530
										CHANNELS 3 Xrotation Yrotation Zrotation
										JOINT mixamorig:LeftHandThumb3
										{
											OFFSET 2.647881 -1.528763 1.528754
											CHANNELS 6 Xposition Yposition Zposition Xrotation Yrotation Zrotation
											JOINT mixamorig:LeftHandThumb4
											{
												OFFSET 1.998924 -1.154083 1.154080
												CHANNELS 6 Xposition Yposition Zposition Xrotation Yrotation Zrotation
												End Site
												{
													OFFSET 1.884041 -1.149155 1.337651
												}
											}
										}
									}
								}
								JOINT mixamorig:LeftHandIndex1
								{
									OFFSET 9.109299 -0.518005 2.259900
									CHANNELS 6 Xposition Yposition Zposition Xrotation Yrotation Zrotation
									JOINT mixamorig:LeftHandIndex2
									{
										OFFSET 3.699997 0.000000 0.000000
										CHANNELS 3 Xrotation Yrotation Zrotation
										JOINT mixamorig:LeftHandIndex3
										{
											OFFSET 2.850006 0.000000 0.000000
											CHANNELS 3 Xrotation Yrotation Zrotation
											JOINT mixamorig:LeftHandIndex4
											{
												OFFSET 2.774895 0.000000 0.000000
												CHANNELS 3 Xrotation Yrotation Zrotation
												End Site
												{
													OFFSET 2.774902 0.000000 -0.000072
												}
											}
										}
									}
								}
								JOINT mixamorig:LeftHandMiddle1
								{
									OFFSET 9.533401 0.000000 0.000000
									CHANNELS 6 Xposition Yposition Zposition Xrotation Yrotation Zrotation
									JOINT mixamorig:LeftHandMiddle2
									{
										OFFSET 3.699997 0.000000 0.000000
										CHANNELS 3 Xrotation Yrotation Zrotation
										JOINT mixamorig:LeftHandMiddle3
										{
											OFFSET 2.949997 0.000000 0.000000
											CHANNELS 3 Xrotation Yrotation Zrotation
											JOINT mixamorig:LeftHandMiddle4
											{
												OFFSET 2.952896 0.000000 0.000000
												CHANNELS 3 Xrotation Yrotation Zrotation
												End Site
												{
													OFFSET 2.952904 0.000000 0.000165
												}
											}
										}
									}
								}
								JOINT mixamorig:LeftHandRing1
								{
									OFFSET 9.104500 -0.042999 -1.865101
									CHANNELS 6 Xposition Yposition Zposition Xrotation Yrotation Zrotation
									JOINT mixamorig:LeftHandRing2
									{
										OFFSET 3.149994 0.000000 0.000000
										CHANNELS 3 Xrotation Yrotation Zrotation
										JOINT mixamorig:LeftHandRing3
										{
											OFFSET 2.950005 0.000000 0.000000
											CHANNELS 3 Xrotation Yrotation Zrotation
											JOINT mixamorig:LeftHandRing4
											{
												OFFSET 2.644302 0.000000 0.000000
												CHANNELS 3 Xrotation Yrotation Zrotation
												End Site
												{
													OFFSET 2.644302 0.000000 0.000083
												}
											}
										}
									}
								}
								JOINT mixamorig:LeftHandPinky1
								{
									OFFSET 8.077805 -0.486893 -3.806302
									CHANNELS 6 Xposition Yposition Zposition Xrotation Yrotation Zrotation
									JOINT mixamorig:LeftHandPinky2
									{
										OFFSET 3.600006 0.000000 0.000000
										CHANNELS 3 Xrotation Yrotation Zrotation
										JOINT mixamorig:LeftHandPinky3
										{
											OFFSET 2.099998 0.000000 0.000000
											CHANNELS 3 Xrotation Yrotation Zrotation
											JOINT mixamorig:LeftHandPinky4
											{
												OFFSET 2.125496 0.000000 0.000000
												CHANNELS 3 Xrotation Yrotation Zrotation
												End Site
												{
													OFFSET 2.125504 0.000000 -0.001254
												}
											}
										}
									}
								}
							}
						}
					}
				}
			}
		}
	}
	JOINT mixamorig:RightUpLeg
	{
		OFFSET -8.207800 -6.751701 -1.599544
		CHANNELS 6 Xposition Yposition Zposition Xrotation Yrotation Zrotation
		JOINT mixamorig:RightLeg
		{
			OFFSET 0.000004 -44.370152 0.345934
			CHANNELS 3 Xrotation Yrotation Zrotation
			JOINT mixamorig:RightFoot
			{
				OFFSET 0.000004 -44.423664 -3.043535
				CHANNELS 3 Xrotation Yrotation Zrotation
				JOINT mixamorig:RightToeBase
				{
					OFFSET 0.000001 -8.728691 10.710592
					CHANNELS 3 Xrotation Yrotation Zrotation
					JOINT mixamorig:RightToe_End
					{
						OFFSET 0.000000 -0.000665 9.278101
						CHANNELS 3 Xrotation Yrotation Zrotation
						End Site
						{
							OFFSET 0.000000 -0.000665 9.278103
						}
					}
				}
			}
		}
	}
	JOINT mixamorig:LeftUpLeg
	{
		OFFSET 8.207800 -6.751701 -1.599544
		CHANNELS 6 Xposition Yposition Zposition Xrotation Yrotation Zrotation
		JOINT mixamorig:LeftLeg
		{
			OFFSET 0.000004 -44.370037 0.346940
			CHANNELS 3 Xrotation Yrotation Zrotation
			JOINT mixamorig:LeftFoot
			{
				OFFSET 0.000004 -44.423611 -3.044388
				CHANNELS 3 Xrotation Yrotation Zrotation
				JOINT mixamorig:LeftToeBase
				{
					OFFSET 0.000001 -8.728690 10.710592
					CHANNELS 3 Xrotation Yrotation Zrotation
					JOINT mixamorig:LeftToe_End
					{
						OFFSET 0.000000 -0.000680 9.278101
						CHANNELS 3 Xrotation Yrotation Zrotation
						End Site
						{
							OFFSET 0.000000 -0.000680 9.278101
						}
					}
				}
			}
		}
	}
}
MOTION
Frames: 4
Frame Time: 0.033333
-0.072137 99.077225 1.742552 -1.572043 -4.729981 -3.343606 0.000000 10.181553 0.131526 2.601765 -0.220989 -0.030796 5.204822 -0.430149 -0.521592 5.204889 -0.429363 -0.521620 -0.000001 16.740360 -2.049021 -6.435662 1.533530 -0.401985 -0.000000 9.617859 1.684971 4.528324 -7.710119 3.667895 0.000000 22.037354 7.501077 -0.000000 0.000000 0.000000 -4.570004 11.014883 -2.160839 13.573637 -2.187240 6.515951 -19.634844 10.049994 77.460397 -0.000010 19.551792 0.000012 -14.639452 -4.897917 5.736312 -2.464792 -1.573982 2.681911 14.438762 -7.329572 -17.210161 9.120424 -15.806857 3.754624 -2.646268 -1.527805 1.527819 -1.273762 0.137303 -2.094876 -1.994594 -1.151587 1.151572 0.000001 -0.000003 -0.000002 -9.108307 -0.517893 2.259804 0.445175 -2.452334 20.574558 0.445158 -2.452328 20.574533 0.445177 -2.452328 20.574533 -0.000001 0.000001 0.000004 -9.532495 0.000004 0.000000 0.445175 -2.452333 20.574558 0.445158 -2.452328 20.574533 0.445178 -2.452328 20.574529 0.000000 0.000000 0.000002 -9.103602 -0.043102 -1.865100 0.668373 -2.979403 25.282435 0.445159 -2.452332 20.574550 0.445175 -2.452330 20.574552 0.000000 0.000000 -0.000000 -8.076702 -0.486721 -3.806296 0.820859 -3.282431 28.073761 0.765651 -3.176914 27.093883 0.482048 -2.548308 21.419755 -0.000000 -0.000000 0.000002 4.570402 11.014668 -2.160814 2.732425 -8.561621 -7.898476 -11.532622 -0.148285 -72.072361 0.000003 -13.909549 0.000021 -10.602375 3.517486 9.347567 2.466096 -1.576206 2.681699 0.751421 18.118352 3.437145 3.460757 16.775223 0.407744 2.647887 -1.528762 1.528753 -0.579451 1.575008 2.538718 1.998917 -1.154066 1.154086 0.000001 0.000001 -0.000000 9.109284 -0.518014 2.259901 0.510312 2.605982 -22.156796 0.510302 2.605986 -22.156814 0.510307 2.605987 -22.156818 -0.000000 -0.000000 -0.000001 9.533396 0.000001 0.000000 0.509589 2.604193 -22.140775 0.511024 2.607775 -22.172829 0.510312 2.605987 -22.156804 -0.000000 0.000000 0.000004 9.104489 -0.043000 -1.865101 1.066711 3.701120 -29.624289 0.510308 2.605989 -22.156811 0.510306 2.605984 -22.156825 -0.000000 -0.000000 -0.000000 8.077793 -0.486891 -3.806299 3.669476 7.328015 -35.444553 1.128023 -0.301829 -33.442406 0.910658 3.427371 -29.753236 -0.000000 -0.000001 0.000000 -8.207802 -6.751705 -1.599542 -11.509917 -12.602010 -6.891129 28.265042 6.083935 -5.165445 -15.201833 -1.822740 10.416202 -0.000142 0.000001 -0.000000 -0.000000 -0.000000 0.000000 8.207799 -6.751688 -1.599544 -18.267300 18.062671 18.944242 32.448105 -8.993215 1.670751 -15.472839 1.750235 -8.194460 -0.000037 0.000000 0.000000 -0.000000 0.000000 0.000000 
0.060794 99.092529 1.663909 -1.592687 -5.022731 -3.213594 -0.000001 10.181562 0.131524 2.617449 -0.240587 -0.030196 5.235836 -0.469398 -0.506051 5.235899 -0.468679 -0.506075 -0.000000 16.740387 -2.049020 -6.507831 1.594282 -0.561510 -0.000000 9.617867 1.684977 4.480237 -7.666655 3.671630 0.000001 22.037369 7.501073 0.000000 0.000001 -0.000000 -4.569999 11.014881 -2.160841 13.341969 -2.391876 6.289205 -19.625712 10.153680 77.527988 -0.000003 19.587509 0.000009 -14.654982 -4.910407 5.749555 -2.464799 -1.573995 2.681904 14.438762 -7.329579 -17.210161 9.120423 -15.806856 3.754622 -2.646266 -1.527815 1.527817 -1.273762 0.137308 -2.094871 -1.994578 -1.151590 1.151573 0.000001 0.000000 -0.000002 -9.108299 -0.517878 2.259801 0.445175 -2.452334 20.574555 0.445159 -2.452328 20.574533 0.445176 -2.452329 20.574534 0.000000 0.000000 0.000001 -9.532492 0.000002 -0.000001 0.445175 -2.452334 20.574555 0.445158 -2.452328 20.574533 0.445177 -2.452326 20.574533 0.000000 -0.000001 -0.000002 -9.103591 -0.043103 -1.865100 0.668372 -2.979403 25.282432 0.445160 -2.452332 20.574548 0.445175 -2.452332 20.574557 0.000000 -0.000000 -0.000001 -8.076687 -0.486721 -3.806299 0.820857 -3.282431 28.073761 0.765650 -3.176914 27.093880 0.482048 -2.548307 21.419757 0.000000 0.000000 -0.000000 4.570400 11.014686 -2.160812 2.757161 -8.552983 -8.031891 -11.567292 -0.079853 -71.987646 0.000007 -13.986145 0.000046 -10.634220 3.544226 9.370372 2.466106 -1.576193 2.681705 0.751421 18.118349 3.437141 3.460755 16.775221 0.407740 2.647882 -1.528764 1.528759 -0.579452 1.575006 2.538720 1.998910 -1.154068 1.154083 -0.000000 0.000000 -0.000000 9.109303 -0.518016 2.259901 0.510311 2.605981 -22.156797 0.510302 2.605987 -22.156813 0.510307 2.605987 -22.156818 0.000000 0.000000 0.000004 9.533415 0.000001 0.000003 0.509588 2.604192 -22.140775 0.511024 2.607773 -22.172829 0.510313 2.605988 -22.156802 0.000000 0.000000 -0.000001 9.104497 -0.043004 -1.865098 1.066711 3.701119 -29.624293 0.510308 2.605989 -22.156816 0.510306 2.605984 -22.156825 -0.000000 -0.000000 0.000001 8.077801 -0.486887 -3.806300 3.669474 7.328014 -35.444550 1.128023 -0.301829 -33.442406 0.910659 3.427372 -29.753240 -0.000000 -0.000001 -0.000000 -8.207803 -6.751705 -1.599542 -11.677938 -12.649679 -7.154267 28.265083 6.517566 -5.189709 -15.091190 -1.828029 10.407858 -0.000094 0.000009 -0.000002 -0.000000 -0.000000 -0.000000 8.207798 -6.751689 -1.599544 -18.031991 17.899462 18.454987 32.430875 -8.539991 1.878464 -15.514606 1.766300 -8.295312 0.000005 -0.000001 -0.000005 -0.000000 -0.000001 0.000000 
0.219415 99.106026 1.567397 -1.608903 -5.375445 -3.065253 0.000001 10.181560 0.131524 2.638790 -0.262751 -0.052120 5.277952 -0.514809 -0.534293 5.278015 -0.514127 -0.534319 -0.000000 16.740368 -2.049017 -6.547411 1.630270 -0.637556 0.000001 9.617831 1.684976 4.406184 -7.613055 3.684644 0.000001 22.037369 7.501078 -0.000001 -0.000000 -0.000000 -4.569997 11.014870 -2.160835 13.191884 -2.514771 6.134652 -19.682310 10.232618 77.588818 -0.000023 19.640617 0.000045 -14.679806 -4.924777 5.746848 -2.464780 -1.573982 2.681910 14.438765 -7.329581 -17.210161 9.120428 -15.806856 3.754625 -2.646284 -1.527815 1.527820 -1.273763 0.137308 -2.094873 -1.994587 -1.151578 1.151573 -0.000000 -0.000001 0.000001 -9.108292 -0.517877 2.259803 0.445176 -2.452334 20.574558 0.445159 -2.452328 20.574533 0.445178 -2.452328 20.574533 0.000000 0.000001 -0.000002 -9.532492 0.000004 -0.000000 0.445176 -2.452333 20.574560 0.445160 -2.452328 20.574533 0.445178 -2.452329 20.574536 0.000001 -0.000000 -0.000000 -9.103580 -0.043091 -1.865101 0.668373 -2.979402 25.282439 0.445159 -2.452332 20.574550 0.445175 -2.452332 20.574560 0.000000 -0.000001 -0.000001 -8.076672 -0.486721 -3.806294 0.820857 -3.282431 28.073761 0.765649 -3.176913 27.093889 0.482048 -2.548305 21.419757 -0.000000 0.000001 -0.000003 4.570401 11.014664 -2.160810 2.763428 -8.531297 -8.086978 -11.598348 -0.090935 -71.959137 0.000007 -14.004807 0.000026 -10.672262 3.561340 9.384028 2.466104 -1.576193 2.681696 0.751421 18.118357 3.437148 3.460754 16.775220 0.407743 2.647882 -1.528751 1.528750 -0.579452 1.575006 2.538720 1.998914 -1.154084 1.154087 0.000001 0.000003 0.000001 9.109296 -0.518018 2.259899 0.510311 2.605984 -22.156801 0.510301 2.605987 -22.156816 0.510307 2.605988 -22.156814 0.000000 -0.000000 0.000003 9.533407 0.000001 -0.000003 0.509589 2.604193 -22.140777 0.511024 2.607774 -22.172829 0.510313 2.605988 -22.156811 -0.000000 -0.000000 -0.000001 9.104497 -0.043000 -1.865104 1.066711 3.701120 -29.624293 0.510307 2.605990 -22.156819 0.510306 2.605984 -22.156825 0.000000 -0.000000 -0.000002 8.077801 -0.486887 -3.806304 3.669475 7.328015 -35.444546 1.128023 -0.301829 -33.442413 0.910658 3.427371 -29.753240 -0.000000 -0.000002 -0.000000 -8.207802 -6.751709 -1.599542 -11.899755 -12.704374 -7.459934 28.288828 7.074397 -5.211717 -14.965913 -1.872155 10.377660 -0.000014 -0.000004 -0.000003 -0.000000 0.000001 0.000000 8.207800 -6.751684 -1.599543 -17.785577 17.704697 17.893468 32.423010 -7.956529 2.123071 -15.554870 1.788022 -8.429358 0.000015 0.000003 0.000003 -0.000000 0.000000 0.000000 
0.397918 99.117783 1.459578 -1.585205 -5.794758 -2.901919 0.000000 10.181555 0.131523 2.660512 -0.284474 -0.100347 5.320804 -0.560799 -0.613671 5.320863 -0.560171 -0.613694 -0.000000 16.740356 -2.049021 -6.551425 1.633467 -0.604713 0.000001 9.617843 1.684973 4.329203 -7.549156 3.711034 0.000000 22.037354 7.501075 -0.000000 -0.000000 0.000000 -4.570002 11.014871 -2.160839 13.152556 -2.537333 6.085203 -19.806811 10.283619 77.633392 0.000003 19.714448 0.000051 -14.715475 -4.938220 5.718993 -2.464787 -1.573985 2.681911 14.438764 -7.329579 -17.210166 9.120428 -15.806857 3.754622 -2.646250 -1.527805 1.527814 -1.273762 0.137305 -2.094875 -1.994598 -1.151587 1.151575 0.000002 -0.000000 -0.000000 -9.108292 -0.517879 2.259805 0.445175 -2.452335 20.574557 0.445158 -2.452327 20.574533 0.445177 -2.452327 20.574529 -0.000000 -0.000000 0.000003 -9.532492 0.000002 0.000001 0.445175 -2.452334 20.574557 0.445157 -2.452328 20.574533 0.445177 -2.452328 20.574538 0.000001 -0.000002 0.000003 -9.103583 -0.043103 -1.865100 0.668372 -2.979403 25.282435 0.445160 -2.452333 20.574546 0.445175 -2.452333 20.574560 0.000000 -0.000001 0.000003 -8.076710 -0.486713 -3.806298 0.820857 -3.282432 28.073759 0.765651 -3.176915 27.093883 0.482047 -2.548305 21.419764 -0.000001 0.000000 0.000004 4.570403 11.014714 -2.160815 2.743422 -8.474435 -8.044465 -11.627775 -0.176940 -71.995071 0.000012 -13.959111 0.000010 -10.712441 3.562462 9.385585 2.466099 -1.576191 2.681700 0.751420 18.118351 3.437144 3.460753 16.775221 0.407742 2.647871 -1.528761 1.528757 -0.579452 1.575008 2.538722 1.998909 -1.154066 1.154079 0.000001 0.000005 -0.000000 9.109292 -0.518016 2.259902 0.510311 2.605984 -22.156797 0.510302 2.605986 -22.156813 0.510307 2.605987 -22.156816 -0.000000 0.000000 0.000003 9.533415 0.000001 0.000001 0.509588 2.604193 -22.140772 0.511024 2.607774 -22.172829 0.510311 2.605987 -22.156806 0.000000 -0.000000 0.000000 9.104489 -0.043004 -1.865099 1.066712 3.701122 -29.624289 0.510309 2.605990 -22.156813 0.510306 2.605984 -22.156825 0.000000 -0.000001 0.000002 8.077778 -0.486887 -3.806300 3.669475 7.328016 -35.444543 1.128023 -0.301828 -33.442406 0.910658 3.427370 -29.753236 0.000000 0.000002 0.000000 -8.207804 -6.751699 -1.599545 -12.195370 -12.742920 -7.799797 28.315852 7.737516 -5.228548 -14.821581 -1.937625 10.336795 -0.000015 -0.000001 -0.000002 -0.000000 0.000000 0.000000 8.207801 -6.751694 -1.599543 -17.558652 17.471655 17.275276 32.412516 -7.238744 2.393067 -15.590590 1.811770 -8.599684 -0.000009 0.000003 -0.000002 -0.000000 0.000000 0.000000 
